<svg width="1440" height="1024" viewBox="0 0 1440 1024" fill="none" xmlns="http://www.w3.org/2000/svg" stroke="#2A1C14">
  <defs>
    <linearGradient id="paint0_linear" x1="720" y1="0" x2="720" y2="1024" gradientUnits="userSpaceOnUse">
      <stop stop-color="#FFE4F3" />
      <stop offset="1" stop-color="#FF6FB4" />
    </linearGradient>
  </defs>
  <rect width="1440" height="1024" fill="#3E2A1F" />
  <g opacity="0.45" fill="#3E2A1F">
    <circle cx="180" cy="140" r="110" />
    <circle cx="180" cy="420" r="110" />
    <circle cx="180" cy="700" r="110" />
    <circle cx="180" cy="980" r="110" />
    <circle cx="500" cy="0" r="110" />
    <circle cx="500" cy="280" r="110" />
    <circle cx="500" cy="560" r="110" />
    <circle cx="500" cy="840" r="110" />
    <circle cx="820" cy="140" r="110" />
    <circle cx="820" cy="420" r="110" />
    <circle cx="820" cy="700" r="110" />
    <circle cx="820" cy="980" r="110" />
    <circle cx="1140" cy="0" r="110" />
    <circle cx="1140" cy="280" r="110" />
    <circle cx="1140" cy="560" r="110" />
    <circle cx="1140" cy="840" r="110" />
    <circle cx="1460" cy="140" r="110" />
    <circle cx="1460" cy="420" r="110" />
    <circle cx="1460" cy="700" r="110" />
    <circle cx="1460" cy="980" r="110" />
  </g>
  <g opacity="0.2" fill="#3E2A1F">
    <rect x="0" width="160" height="1024" />
    <rect x="320" width="160" height="1024" />
    <rect x="640" width="160" height="1024" />
    <rect x="960" width="160" height="1024" />
    <rect x="1280" width="160" height="1024" />
  </g>
</svg>